<svg width="76" height="86" viewBox="0 0 76 86" fill="none" xmlns="http://www.w3.org/2000/svg">
<path d="M63.72 9.96V85H1V1H52.52M63.72 9.96H52.52V1M63.72 9.96L52.52 1" stroke="#6B6B6B" stroke-width="1.3" stroke-linejoin="round"/>
<path d="M9.96002 43.56H54.76" stroke="#6B6B6B" stroke-linecap="square"/>
<path d="M9.96002 50.28H54.76" stroke="#6B6B6B" stroke-linecap="square"/>
<path d="M9.96002 57H34.6" stroke="#6B6B6B" stroke-linecap="square"/>
<path d="M27.88 63.72L54.76 63.72" stroke="#6B6B6B" stroke-linecap="square"/>
<path d="M9.96002 63.72H23.4" stroke="#6B6B6B" stroke-linecap="square"/>
<path d="M9.96002 70.44H16.68" stroke="#6B6B6B" stroke-linecap="square"/>
<path d="M21.16 70.44L54.76 70.44" stroke="#6B6B6B" stroke-linecap="square"/>
<path d="M9.96002 77.16H27.88" stroke="#6B6B6B" stroke-linecap="square"/>
<path d="M39.08 57L54.76 57" stroke="#6B6B6B" stroke-linecap="square"/>
<path d="M32.7991 10.9062V13.0208H35.1856C35.6097 13.0208 36.0242 13.1489 36.3746 13.387L38.4251 14.7814C38.4747 14.8152 38.5339 14.8333 38.5943 14.8333H43.5509C43.7912 14.8333 44.0217 14.9288 44.1917 15.0988C44.3616 15.2687 44.4571 15.4992 44.4571 15.7396C44.4571 15.9799 44.3616 16.2104 44.1917 16.3804C44.0217 16.5504 43.7912 16.6458 43.5509 16.6458H41.6441L45.7114 25.9258C45.793 26.1114 45.8099 26.3189 45.7595 26.5152C45.7091 26.7115 45.5943 26.8852 45.4335 27.0085C45.3126 27.0979 45.1882 27.1813 45.0589 27.2574C44.7524 27.4403 44.4334 27.6014 44.1043 27.7395C43.0113 28.1966 41.838 28.4304 40.6533 28.4271C39.4691 28.4308 38.2961 28.1974 37.2035 27.7407C36.8742 27.6026 36.5552 27.4411 36.2489 27.2574C36.1207 27.1832 35.9968 27.1017 35.878 27.0133L35.8719 27.0085C35.7111 26.8852 35.5962 26.7115 35.5458 26.5152C35.4954 26.3189 35.5124 26.1114 35.594 25.9258L39.6637 16.6458H38.5931C38.169 16.6458 37.7545 16.5177 37.4041 16.2797L35.3535 14.8853C35.3037 14.8512 35.2447 14.8331 35.1844 14.8333H32.7991V32.3542H38.2209C38.4613 32.3542 38.6918 32.4496 38.8617 32.6196C39.0317 32.7896 39.1272 33.0201 39.1272 33.2604C39.1272 33.5008 39.0317 33.7313 38.8617 33.9012C38.6918 34.0712 38.4613 34.1667 38.2209 34.1667H25.5648C25.3245 34.1667 25.094 34.0712 24.924 33.9012C24.7541 33.7313 24.6586 33.5008 24.6586 33.2604C24.6586 33.0201 24.7541 32.7896 24.924 32.6196C25.094 32.4496 25.3245 32.3542 25.5648 32.3542H30.9866V14.8333H28.6002C28.5398 14.8333 28.4809 14.8514 28.431 14.8853L26.3817 16.2797C26.0312 16.5177 25.6168 16.6458 25.1927 16.6458H24.1221L28.1917 25.9258C28.2705 26.1061 28.2885 26.3071 28.2429 26.4985C28.1974 26.6899 28.0907 26.8613 27.9392 26.9867C27.8425 27.0653 27.7459 27.139 27.5646 27.2562C27.259 27.4541 26.9391 27.629 26.6076 27.7794C25.5163 28.2752 24.3311 28.5307 23.1325 28.5286C21.9337 28.5311 20.7485 28.2756 19.6573 27.7794C19.3258 27.629 19.0059 27.4541 18.7003 27.2562C18.5711 27.1741 18.4464 27.0849 18.3269 26.9892C18.1766 26.8623 18.0708 26.6906 18.0251 26.4992C17.9795 26.3079 17.9963 26.1069 18.0732 25.9258L22.1416 16.6458H20.2361C19.9957 16.6458 19.7652 16.5504 19.5953 16.3804C19.4253 16.2104 19.3298 15.9799 19.3298 15.7396C19.3298 15.4992 19.4253 15.2687 19.5953 15.0988C19.7652 14.9288 19.9957 14.8333 20.2361 14.8333H25.1927C25.2531 14.8333 25.3123 14.8152 25.363 14.7814L27.4112 13.387C27.7616 13.1477 28.1772 13.0208 28.6014 13.0208H30.9866V10.9062C30.9866 10.6659 31.0821 10.4354 31.2521 10.2654C31.422 10.0955 31.6525 10 31.8929 10C32.1332 10 32.3637 10.0955 32.5337 10.2654C32.7036 10.4354 32.7991 10.6659 32.7991 10.9062ZM20.0427 25.9476C20.9938 26.4539 22.0551 26.7174 23.1325 26.7149C24.2098 26.7174 25.2712 26.4539 26.2222 25.9476L23.1325 18.903L20.0427 25.9476ZM37.5757 25.9186C37.6747 25.9669 37.7859 26.0189 37.908 26.0708C38.5484 26.3403 39.4848 26.6146 40.6533 26.6146C41.7185 26.6176 42.7706 26.3796 43.7309 25.9186L40.6533 18.9018L37.5757 25.9186Z" fill="#6B6B6B"/>
<path d="M61.9375 70.625C67.84 70.625 72.625 65.84 72.625 59.9375C72.625 54.035 67.84 49.25 61.9375 49.25C56.035 49.25 51.25 54.035 51.25 59.9375C51.25 65.84 56.035 70.625 61.9375 70.625Z" stroke="#6B6B6B" stroke-width="1.5"/>
<path d="M69.8125 67.8125L73.75 71.75" stroke="#6B6B6B" stroke-width="1.5" stroke-linecap="round"/>
</svg>
