<svg width="77" height="110" viewBox="0 0 77 110" fill="none" xmlns="http://www.w3.org/2000/svg">
<path d="M3 58.5C2.17157 58.5 1.5 59.1716 1.5 60V106.749C1.5 107.577 2.17157 108.249 3 108.249H40C40.8284 108.249 41.5 107.577 41.5 106.749V64.9865C41.5 64.516 41.2792 64.0727 40.9036 63.7892L34.2965 58.8027C34.0362 58.6063 33.719 58.5 33.3929 58.5H3Z" stroke="#646363" stroke-width="3" stroke-linejoin="round"/>
<path d="M24 19.5C23.1716 19.5 22.5 20.1716 22.5 21V83C22.5 83.8284 23.1716 84.5 24 84.5H73.0709C73.8994 84.5 74.5709 83.8284 74.5709 83V27.6133C74.5709 27.1428 74.3501 26.6995 73.9745 26.416L65.2119 19.8027C64.9516 19.6063 64.6344 19.5 64.3083 19.5H24Z" stroke="#646363" stroke-width="3" stroke-linejoin="round"/>
<path d="M3 1.5C2.17157 1.5 1.5 2.17157 1.5 3V50C1.5 50.8284 2.17157 51.5 3 51.5H40.1989C41.0274 51.5 41.6989 50.8284 41.6989 50V8.01333C41.6989 7.54279 41.4781 7.09951 41.1025 6.81605L34.4599 1.80272C34.1996 1.60627 33.8824 1.5 33.5563 1.5H3Z" stroke="#646363" stroke-width="3" stroke-linejoin="round"/>
</svg>
