<svg width="74" height="90" viewBox="0 0 74 90" fill="none" xmlns="http://www.w3.org/2000/svg">
<path d="M72.72 13.96V89H10V5H61.52M72.72 13.96H61.52V5M72.72 13.96L61.52 5" stroke="#6B6B6B" stroke-width="1.3" stroke-linejoin="round"/>
<path d="M18.96 47.56H63.76" stroke="#6B6B6B" stroke-linecap="square"/>
<path d="M18.96 54.28H63.76" stroke="#6B6B6B" stroke-linecap="square"/>
<path d="M18.96 61H43.6" stroke="#6B6B6B" stroke-linecap="square"/>
<path d="M36.88 67.72H63.76" stroke="#6B6B6B" stroke-linecap="square"/>
<path d="M18.96 67.72H32.4" stroke="#6B6B6B" stroke-linecap="square"/>
<path d="M18.96 74.44H25.68" stroke="#6B6B6B" stroke-linecap="square"/>
<path d="M30.16 74.44L63.76 74.44" stroke="#6B6B6B" stroke-linecap="square"/>
<path d="M18.96 81.16H36.88" stroke="#6B6B6B" stroke-linecap="square"/>
<path d="M48.08 61L63.76 61" stroke="#6B6B6B" stroke-linecap="square"/>
<path d="M41.7991 14.9062V17.0208H44.1856C44.6097 17.0208 45.0242 17.1489 45.3746 17.387L47.4251 18.7814C47.4747 18.8152 47.5339 18.8333 47.5943 18.8333H52.5509C52.7912 18.8333 53.0217 18.9288 53.1917 19.0988C53.3616 19.2687 53.4571 19.4992 53.4571 19.7396C53.4571 19.9799 53.3616 20.2104 53.1917 20.3804C53.0217 20.5504 52.7912 20.6458 52.5509 20.6458H50.6441L54.7114 29.9258C54.793 30.1114 54.8099 30.3189 54.7595 30.5152C54.7091 30.7115 54.5943 30.8852 54.4335 31.0085C54.3126 31.0979 54.1882 31.1813 54.0589 31.2574C53.7524 31.4403 53.4334 31.6014 53.1043 31.7395C52.0113 32.1966 50.838 32.4304 49.6533 32.4271C48.4691 32.4308 47.2961 32.1974 46.2035 31.7407C45.8742 31.6026 45.5552 31.4411 45.2489 31.2574C45.1207 31.1832 44.9968 31.1017 44.878 31.0133L44.8719 31.0085C44.7111 30.8852 44.5962 30.7115 44.5458 30.5152C44.4954 30.3189 44.5124 30.1114 44.594 29.9258L48.6637 20.6458H47.5931C47.169 20.6458 46.7545 20.5177 46.4041 20.2797L44.3535 18.8853C44.3037 18.8512 44.2447 18.8331 44.1844 18.8333H41.7991V36.3542H47.2209C47.4613 36.3542 47.6918 36.4496 47.8617 36.6196C48.0317 36.7896 48.1272 37.0201 48.1272 37.2604C48.1272 37.5008 48.0317 37.7313 47.8617 37.9012C47.6918 38.0712 47.4613 38.1667 47.2209 38.1667H34.5648C34.3245 38.1667 34.094 38.0712 33.924 37.9012C33.7541 37.7313 33.6586 37.5008 33.6586 37.2604C33.6586 37.0201 33.7541 36.7896 33.924 36.6196C34.094 36.4496 34.3245 36.3542 34.5648 36.3542H39.9866V18.8333H37.6002C37.5398 18.8333 37.4809 18.8514 37.431 18.8853L35.3817 20.2797C35.0312 20.5177 34.6168 20.6458 34.1927 20.6458H33.1221L37.1917 29.9258C37.2705 30.1061 37.2885 30.3071 37.2429 30.4985C37.1974 30.6899 37.0907 30.8613 36.9392 30.9867C36.8425 31.0653 36.7459 31.139 36.5646 31.2562C36.259 31.4541 35.9391 31.629 35.6076 31.7794C34.5163 32.2752 33.3311 32.5307 32.1325 32.5286C30.9337 32.5311 29.7485 32.2756 28.6573 31.7794C28.3258 31.629 28.0059 31.4541 27.7003 31.2562C27.5711 31.1741 27.4464 31.0849 27.3269 30.9892C27.1766 30.8623 27.0708 30.6906 27.0251 30.4992C26.9795 30.3079 26.9963 30.1069 27.0732 29.9258L31.1416 20.6458H29.2361C28.9957 20.6458 28.7652 20.5504 28.5953 20.3804C28.4253 20.2104 28.3298 19.9799 28.3298 19.7396C28.3298 19.4992 28.4253 19.2687 28.5953 19.0988C28.7652 18.9288 28.9957 18.8333 29.2361 18.8333H34.1927C34.2531 18.8333 34.3123 18.8152 34.363 18.7814L36.4112 17.387C36.7616 17.1477 37.1772 17.0208 37.6014 17.0208H39.9866V14.9062C39.9866 14.6659 40.0821 14.4354 40.2521 14.2654C40.422 14.0955 40.6525 14 40.8929 14C41.1332 14 41.3637 14.0955 41.5337 14.2654C41.7036 14.4354 41.7991 14.6659 41.7991 14.9062ZM29.0427 29.9476C29.9938 30.4539 31.0551 30.7174 32.1325 30.7149C33.2098 30.7174 34.2712 30.4539 35.2222 29.9476L32.1325 22.903L29.0427 29.9476ZM46.5757 29.9186C46.6747 29.9669 46.7859 30.0189 46.908 30.0708C47.5484 30.3403 48.4848 30.6146 49.6533 30.6146C50.7185 30.6176 51.7706 30.3796 52.7309 29.9186L49.6533 22.9018L46.5757 29.9186Z" fill="#6B6B6B"/>
<path d="M56.52 5V3M56.52 3H5V87H10M56.52 3L59.5 5" stroke="#6B6B6B" stroke-width="1.3" stroke-linejoin="round"/>
<path d="M52.52 3V1M52.52 1H1V85H5M52.52 1L55.5 3" stroke="#6B6B6B" stroke-width="1.3" stroke-linejoin="round"/>
</svg>
