<?xml version="1.0" standalone="no"?>
<!DOCTYPE svg PUBLIC "-//W3C//DTD SVG 20010904//EN"
 "http://www.w3.org/TR/2001/REC-SVG-20010904/DTD/svg10.dtd">
<svg version="1.0" xmlns="http://www.w3.org/2000/svg"
 width="880.000000pt" height="880.000000pt" viewBox="0 0 880.000000 880.000000"
 preserveAspectRatio="xMidYMidMeet">
<metadata>
Created by potrace 1.14, written by Peter Selinger 2001-2017
</metadata>
<g transform="translate(0.000000,880.000000) scale(0.100000,-0.100000)"
fill="#000000" stroke="none">
<path d="M1500 8793 c-73 -26 -112 -57 -153 -123 l-22 -35 -3 -1935 c-2 -2146
-7 -1989 64 -2063 65 -67 77 -70 300 -77 24 -1 68 -1 234 -2 8 0 41 1 72 2 31
1 61 -1 67 -4 5 -4 12 -2 16 4 4 6 11 7 17 4 5 -3 76 -5 156 -4 81 1 154 1
162 1 8 0 98 0 200 0 102 0 192 0 200 0 8 0 55 -1 104 -1 88 -1 88 -1 83 -26
-2 -13 0 -27 5 -30 4 -3 6 -10 2 -15 -3 -5 -6 -65 -6 -132 l0 -123 -61 6 c-34
4 -80 3 -102 0 -22 -3 -55 -3 -73 1 -18 4 -35 3 -38 -2 -3 -5 -10 -7 -15 -3
-5 3 -202 5 -437 4 -235 0 -434 -1 -442 -1 -129 3 -283 1 -309 -4 -75 -13
-138 -58 -176 -125 -20 -35 -20 -56 -23 -1960 -2 -1809 -1 -1928 15 -1973 18
-50 65 -104 118 -135 28 -16 131 -17 1525 -22 822 -3 1520 -2 1551 1 121 14
209 93 225 202 2 17 4 406 5 864 l0 831 40 4 c22 2 42 2 44 -1 3 -2 58 -3 122
-2 65 1 124 2 131 2 36 -1 144 0 155 0 6 0 55 0 107 -1 52 -1 100 -1 105 0 6
1 15 1 20 0 6 -1 62 -1 125 0 63 0 121 1 128 1 36 -1 144 0 155 0 6 0 55 0
107 -1 52 -1 100 -1 105 0 6 1 15 1 20 0 8 -1 189 -1 250 1 6 0 53 -1 106 -2
53 -1 102 2 108 5 6 4 11 4 11 -1 0 -9 282 -8 306 1 7 3 14 2 14 -2 0 -8 210
-6 279 2 84 10 173 87 198 171 5 17 9 969 8 2290 l-1 2260 -22 47 c-23 49 -68
91 -212 198 -47 34 -86 67 -88 71 -2 5 -8 9 -13 9 -11 0 -142 100 -147 112 -2
4 -8 8 -14 8 -6 0 -22 10 -37 23 -15 12 -42 33 -61 47 -18 14 -39 31 -46 38
-7 6 -15 12 -18 12 -4 0 -31 20 -61 44 -109 89 -163 109 -290 107 -48 -1 -63
-1 -102 -1 -10 0 -40 0 -66 0 -27 0 -53 2 -58 5 -5 4 -9 1 -9 -5 0 -6 -5 -8
-11 -5 -6 4 -72 6 -147 6 -75 -1 -146 -1 -157 -1 -11 0 -31 0 -45 -1 -14 -1
-32 -1 -40 -1 -8 0 -26 0 -40 1 -14 1 -33 1 -42 1 -10 0 -29 0 -43 0 -14 0
-33 0 -42 0 -65 -1 -220 -1 -230 0 -27 0 -50 0 -96 0 -27 0 -53 2 -58 5 -5 4
-9 1 -9 -5 0 -6 -5 -8 -11 -5 -13 8 -283 10 -296 2 -5 -3 -15 -2 -22 3 -8 4
-26 4 -41 0 -55 -16 -54 -27 -55 437 l-1 428 -26 45 c-18 33 -64 76 -169 158
-79 62 -151 116 -159 119 -8 4 -17 9 -20 13 -3 3 -32 26 -65 51 -33 24 -62 46
-65 49 -13 14 -138 103 -165 118 -27 16 -136 17 -1310 19 -704 1 -1287 -1
-1295 -4z m562 -233 c46 0 92 1 103 1 11 0 76 0 145 0 69 0 132 0 140 0 8 0
116 0 240 0 124 0 230 0 235 0 6 0 48 0 95 0 47 0 94 0 105 0 32 -1 269 0 280
0 6 0 93 0 195 -1 102 0 228 0 280 0 52 0 103 -1 113 -3 14 -3 114 -70 167
-114 18 -15 277 -210 316 -238 63 -45 59 -14 59 -445 l0 -395 -55 -3 c-30 -1
-63 -2 -72 -2 -10 0 -26 0 -35 0 -10 0 -40 0 -66 0 -27 0 -53 2 -58 5 -5 4 -9
2 -9 -4 0 -6 -11 -6 -29 -1 -16 4 -32 6 -34 4 -3 -3 -27 -5 -53 -4 -27 0 -79
0 -116 0 -38 0 -75 0 -83 0 -33 0 -52 0 -98 0 -27 0 -53 2 -58 5 -5 4 -9 2 -9
-4 0 -6 -6 -8 -14 -5 -21 8 -106 10 -106 2 0 -4 -6 -5 -13 -3 -22 9 -187 10
-187 2 0 -5 -5 -5 -11 -2 -9 6 -41 7 -139 4 -8 0 -29 1 -46 2 -83 5 -194 -68
-226 -149 -16 -41 -23 -211 -17 -392 0 -8 0 -40 -1 -70 -1 -30 -1 -59 0 -65 1
-5 1 -14 0 -20 -1 -5 -1 -44 0 -85 2 -91 2 -83 0 -150 -1 -30 -1 -59 0 -65 1
-5 1 -14 0 -20 -1 -5 -1 -44 0 -85 2 -91 2 -83 0 -150 -1 -30 -1 -59 0 -65 1
-5 1 -14 0 -20 -1 -5 -1 -44 0 -85 2 -91 2 -83 0 -150 -1 -30 -1 -59 0 -65 1
-5 1 -14 0 -20 -1 -5 -1 -62 0 -125 1 -63 2 -119 1 -125 0 -18 0 -380 0 -395
1 -8 0 -35 0 -60 0 -25 -1 -54 -1 -65 0 -11 0 -46 -1 -77 l0 -57 -82 -3 c-45
-2 -106 -1 -135 2 -30 3 -56 2 -58 -2 -3 -5 -10 -6 -15 -3 -5 4 -84 6 -177 5
-92 -1 -173 -1 -179 -1 -7 0 -33 0 -58 0 -25 0 -53 0 -62 0 -10 0 -105 0 -211
1 -107 0 -198 -2 -203 -6 -5 -3 -9 -2 -9 3 0 4 -56 7 -124 5 l-125 -2 0 1880
0 1879 196 0 c107 0 198 2 200 5 3 3 10 3 14 0 5 -2 46 -4 91 -4z m1508 -1441
c112 3 98 3 226 0 56 -1 107 2 113 5 6 4 16 4 22 0 12 -7 208 -9 215 -1 3 2
21 1 40 -3 19 -5 37 -4 40 1 3 6 15 7 27 3 19 -6 186 -9 212 -4 6 1 24 2 40 1
l30 -1 0 -1158 0 -1157 -65 -2 c-67 -2 -224 -3 -250 -2 -8 1 -28 0 -45 -1 -16
-1 -79 -1 -140 0 -60 0 -158 0 -217 0 -60 -1 -112 1 -117 5 -5 3 -12 2 -15 -3
-2 -4 -33 -5 -68 -2 -35 3 -81 3 -103 0 -22 -3 -64 -2 -93 1 -29 3 -55 3 -57
0 -7 -12 -126 1 -122 12 2 7 0 24 -4 39 -4 15 -4 30 0 32 4 3 4 32 1 65 -3 34
-2 67 2 74 4 7 4 29 0 48 -4 18 -5 50 -2 69 3 19 3 51 -1 71 -3 21 -2 43 2 51
4 8 5 30 1 49 -4 18 -5 50 -2 69 3 19 3 49 -1 67 -4 18 -5 34 -3 36 2 2 4 330
3 728 0 398 0 729 0 734 0 6 0 33 0 60 0 28 0 61 1 73 0 13 2 28 5 32 3 5 44
9 91 8 46 0 88 2 91 6 4 3 16 3 27 0 11 -4 63 -6 116 -5z m1350 -1 c54 0 103
3 109 6 6 4 16 4 22 0 6 -3 57 -6 113 -5 55 1 110 2 121 2 84 -1 196 -1 202 0
4 1 13 0 18 -1 10 -2 128 -1 143 1 4 1 12 1 17 -1 27 -5 154 -2 164 4 6 4 16
4 22 0 12 -7 208 -9 215 -1 3 2 21 1 40 -3 19 -5 37 -4 40 1 3 6 15 7 27 3 24
-7 206 -9 213 -1 3 2 24 1 48 -4 38 -7 153 -84 286 -192 8 -7 31 -23 50 -37
19 -13 37 -27 40 -30 3 -3 32 -25 65 -50 33 -25 64 -48 70 -53 5 -4 37 -28 70
-53 33 -25 67 -50 75 -57 8 -7 29 -22 45 -34 l30 -21 -1 -2214 c-1 -1217 -2
-2217 -3 -2221 0 -5 -5 -6 -10 -3 -5 4 -85 6 -178 5 -92 0 -184 1 -203 2 -19
1 -44 1 -55 1 -56 0 -222 -1 -235 -1 -8 1 -60 0 -115 0 -55 0 -153 0 -217 2
-65 1 -118 -2 -118 -6 0 -5 -4 -5 -10 -2 -5 3 -83 5 -172 5 -90 -1 -179 -1
-198 0 -109 6 -260 4 -260 -3 0 -5 -4 -5 -10 -2 -5 3 -83 5 -172 5 -90 -1
-170 -1 -178 -1 -8 0 -72 1 -142 1 l-127 0 0 724 c0 398 -3 741 -7 761 -16 87
-39 110 -286 297 -112 83 -207 156 -213 160 -54 44 -147 107 -175 118 -52 21
-30 20 -320 19 -8 0 -64 0 -125 1 -407 2 -387 0 -396 31 -3 15 -3 32 1 39 4 7
4 26 1 44 -4 17 -4 47 -1 66 3 19 3 46 0 60 -4 14 -4 36 0 50 5 23 11 25 70
27 151 5 190 4 200 -2 5 -3 10 -2 10 3 0 5 18 6 42 2 24 -5 46 -6 50 -4 4 3
36 5 70 4 139 -2 231 0 235 4 2 2 20 0 39 -4 19 -4 36 -4 39 0 2 4 24 4 47 0
24 -5 46 -6 49 -4 4 2 63 4 130 4 68 0 171 0 229 0 58 0 118 3 134 6 45 8 101
40 131 76 63 74 59 -10 60 1286 0 1012 3 1184 15 1192 8 5 18 6 23 3 4 -3 53
-5 107 -5z m-2840 -3118 c6 4 29 4 53 1 23 -4 68 -4 99 -1 31 3 65 3 74 0 9
-4 37 -3 60 0 24 4 46 5 48 3 3 -3 135 -5 294 -4 l290 0 4 -34 c2 -18 1 -41
-2 -50 -3 -9 -3 -41 0 -71 3 -30 4 -57 2 -59 -3 -2 -4 -75 -3 -162 1 -87 2
-162 2 -168 0 -5 0 -35 -1 -65 -1 -30 -1 -59 0 -65 1 -5 2 -14 1 -20 -2 -7 -1
-354 0 -490 0 -5 0 -35 -1 -65 -1 -30 -1 -59 0 -65 1 -5 2 -14 1 -20 -1 -5 -2
-113 -1 -240 1 -126 1 -246 0 -266 -2 -79 66 -186 137 -215 18 -8 49 -16 70
-19 21 -4 44 -8 51 -10 6 -2 12 -1 12 4 0 5 15 5 33 2 17 -4 47 -4 65 0 17 4
32 4 32 0 0 -3 26 -5 57 -4 129 5 184 5 189 0 3 -2 21 -1 40 3 18 4 34 5 34 1
0 -3 53 -5 117 -3 191 4 305 3 310 -2 3 -3 15 -1 28 4 13 5 26 6 29 3 5 -5
218 -8 241 -3 6 1 25 2 42 1 l33 -1 -1 -830 0 -829 -230 0 c-126 0 -234 -3
-239 -6 -6 -4 -10 -3 -10 2 0 8 -430 8 -462 -1 -10 -2 -18 -1 -18 2 0 4 -450
6 -999 4 l-1000 -2 0 1869 0 1869 196 1 c108 0 197 2 199 4 2 2 28 0 59 -3 30
-3 60 -3 65 0z m1586 -1 l326 0 76 -57 c42 -31 83 -62 92 -69 28 -23 288 -218
310 -233 53 -36 50 11 49 -760 -1 -665 -2 -719 -17 -718 -9 0 -48 -1 -87 -1
-38 0 -123 0 -187 2 -65 1 -118 -2 -118 -6 0 -5 -4 -5 -10 -2 -5 3 -119 5
-252 5 -134 -1 -259 -1 -278 0 -19 2 -44 2 -55 2 -11 0 -67 0 -125 0 -58 -1
-115 -1 -128 -1 -20 -1 -22 3 -21 47 1 26 0 52 -1 57 -1 6 -2 15 0 20 1 6 1
46 0 90 -1 89 -1 84 0 161 1 31 -1 58 -4 61 -3 3 -1 13 4 22 5 10 5 33 2 52
-4 19 -5 50 -2 69 3 19 3 51 -1 71 -3 21 -2 43 2 51 4 8 5 30 1 49 -4 18 -5
50 -2 69 3 19 3 51 -1 71 -3 21 -2 43 2 51 4 8 5 30 1 49 -4 18 -5 50 -2 69 3
19 3 51 -1 71 -3 21 -2 43 2 51 4 8 5 30 1 49 -4 18 -5 50 -2 69 3 19 3 49 -1
67 -4 18 -5 34 -2 37 2 2 4 102 3 221 l-1 217 41 -4 c22 -2 40 0 40 5 0 4 5 5
10 2 6 -4 157 -6 336 -6z"/>
</g>
</svg>
