<svg width="114" height="86" viewBox="0 0 114 86" fill="none" xmlns="http://www.w3.org/2000/svg">
<path d="M21.5521 4.89769V27.4658H3.57892V2.203H18.3426M21.5521 4.89769H18.3426V2.203M21.5521 4.89769L18.3426 2.203" stroke="#6B6B6B" stroke-width="1.3" stroke-linejoin="round"/>
<path d="M6.14664 15.0028H18.9846" stroke="#6B6B6B" stroke-linecap="square"/>
<path d="M6.14664 17.0238H18.9846" stroke="#6B6B6B" stroke-linecap="square"/>
<path d="M6.14664 19.0448H13.2075" stroke="#6B6B6B" stroke-linecap="square"/>
<path d="M11.2817 21.0659L18.9845 21.0659" stroke="#6B6B6B" stroke-linecap="square"/>
<path d="M6.14664 21.0659H9.99803" stroke="#6B6B6B" stroke-linecap="square"/>
<path d="M6.14664 23.0869H8.07234" stroke="#6B6B6B" stroke-linecap="square"/>
<path d="M9.35599 23.0869L18.9845 23.0869" stroke="#6B6B6B" stroke-linecap="square"/>
<path d="M6.14664 25.1079H11.2818" stroke="#6B6B6B" stroke-linecap="square"/>
<path d="M14.4914 19.0448H18.9847" stroke="#6B6B6B" stroke-linecap="square"/>
<path d="M12.6915 5.18228V5.81824H13.3753C13.4969 5.81824 13.6156 5.85676 13.7161 5.92835L14.3037 6.34771C14.3179 6.35789 14.3348 6.36334 14.3521 6.36334H15.7725C15.8414 6.36334 15.9074 6.39206 15.9561 6.44317C16.0048 6.49428 16.0322 6.56361 16.0322 6.63589C16.0322 6.70818 16.0048 6.7775 15.9561 6.82862C15.9074 6.87973 15.8414 6.90844 15.7725 6.90844H15.2261L16.3916 9.69938C16.415 9.75517 16.4199 9.81759 16.4054 9.87663C16.391 9.93567 16.3581 9.98791 16.312 10.025C16.2774 10.0519 16.2417 10.077 16.2046 10.0998C16.1168 10.1549 16.0254 10.2033 15.9311 10.2448C15.6179 10.3823 15.2817 10.4526 14.9422 10.4516C14.6028 10.4527 14.2667 10.3826 13.9536 10.2452C13.8592 10.2037 13.7678 10.1551 13.68 10.0998C13.6433 10.0775 13.6078 10.053 13.5737 10.0264L13.572 10.025C13.5259 9.98791 13.493 9.93567 13.4786 9.87663C13.4641 9.81759 13.469 9.75517 13.4924 9.69938L14.6586 6.90844H14.3518C14.2303 6.90844 14.1115 6.86992 14.0111 6.79833L13.4235 6.37897C13.4092 6.36871 13.3923 6.36326 13.375 6.36334H12.6915V11.6327H14.2451C14.314 11.6327 14.3801 11.6614 14.4288 11.7125C14.4775 11.7636 14.5048 11.8329 14.5048 11.9052C14.5048 11.9775 14.4775 12.0468 14.4288 12.098C14.3801 12.1491 14.314 12.1778 14.2451 12.1778H10.6184C10.5495 12.1778 10.4835 12.1491 10.4348 12.098C10.386 12.0468 10.3587 11.9775 10.3587 11.9052C10.3587 11.8329 10.386 11.7636 10.4348 11.7125C10.4835 11.6614 10.5495 11.6327 10.6184 11.6327H12.1721V6.36334H11.4882C11.4709 6.36333 11.454 6.36878 11.4397 6.37897L10.8525 6.79833C10.752 6.86992 10.6333 6.90844 10.5117 6.90844H10.2049L11.3712 9.69938C11.3937 9.7536 11.3989 9.81406 11.3858 9.87162C11.3728 9.92918 11.3422 9.98072 11.2988 10.0184C11.2711 10.0421 11.2434 10.0642 11.1915 10.0995C11.1039 10.159 11.0122 10.2116 10.9172 10.2568C10.6045 10.4059 10.2649 10.4828 9.92136 10.4821C9.57785 10.4829 9.23821 10.4061 8.92551 10.2568C8.8305 10.2116 8.73884 10.159 8.65127 10.0995C8.61424 10.0748 8.57852 10.048 8.54427 10.0192C8.50119 9.98101 8.47088 9.92938 8.4578 9.87183C8.44471 9.81428 8.44953 9.75384 8.47156 9.69938L9.63742 6.90844H9.09137C9.02249 6.90844 8.95644 6.87973 8.90773 6.82862C8.85903 6.7775 8.83167 6.70818 8.83167 6.63589C8.83167 6.56361 8.85903 6.49428 8.90773 6.44317C8.95644 6.39206 9.02249 6.36334 9.09137 6.36334H10.5117C10.5291 6.36334 10.546 6.35789 10.5606 6.34771L11.1475 5.92835C11.2479 5.85639 11.367 5.81824 11.4885 5.81824H12.1721V5.18228C12.1721 5.11 12.1994 5.04067 12.2481 4.98956C12.2968 4.93844 12.3629 4.90973 12.4318 4.90973C12.5006 4.90973 12.5667 4.93844 12.6154 4.98956C12.6641 5.04067 12.6915 5.11 12.6915 5.18228ZM9.03596 9.70592C9.30849 9.85818 9.61262 9.93745 9.92136 9.93668C10.2301 9.93745 10.5342 9.85818 10.8068 9.70592L9.92136 7.58728L9.03596 9.70592ZM14.0602 9.6972C14.0886 9.71173 14.1205 9.72736 14.1555 9.74299C14.339 9.82403 14.6073 9.90652 14.9422 9.90652C15.2474 9.90741 15.5489 9.83586 15.8241 9.6972L14.9422 7.58692L14.0602 9.6972Z" fill="#6B6B6B"/>
<path d="M16.9099 2.20299V1.60149M16.9099 1.60149H2.14624V26.8643H3.57905M16.9099 1.60149L17.7639 2.20299" stroke="#6B6B6B" stroke-width="1.3" stroke-linejoin="round"/>
<path d="M15.7637 1.60149V1M15.7637 1H1V26.2628H2.14625M15.7637 1L16.6176 1.60149" stroke="#6B6B6B" stroke-width="1.3" stroke-linejoin="round"/>
<path d="M21.5521 33.6648V56.2329H3.57892V30.9701H18.3426M21.5521 33.6648H18.3426V30.9701M21.5521 33.6648L18.3426 30.9701" stroke="#6B6B6B" stroke-width="1.3" stroke-linejoin="round"/>
<path d="M6.14664 43.7699H18.9846" stroke="#6B6B6B" stroke-linecap="square"/>
<path d="M6.14664 45.7909H18.9846" stroke="#6B6B6B" stroke-linecap="square"/>
<path d="M6.14664 47.812H13.2075" stroke="#6B6B6B" stroke-linecap="square"/>
<path d="M11.2817 49.833H18.9845" stroke="#6B6B6B" stroke-linecap="square"/>
<path d="M6.14664 49.833H9.99803" stroke="#6B6B6B" stroke-linecap="square"/>
<path d="M6.14664 51.854H8.07234" stroke="#6B6B6B" stroke-linecap="square"/>
<path d="M9.35599 51.854H18.9845" stroke="#6B6B6B" stroke-linecap="square"/>
<path d="M6.14664 53.875H11.2818" stroke="#6B6B6B" stroke-linecap="square"/>
<path d="M14.4914 47.812H18.9847" stroke="#6B6B6B" stroke-linecap="square"/>
<path d="M12.6915 33.9494V34.5854H13.3753C13.4969 34.5854 13.6156 34.6239 13.7161 34.6955L14.3037 35.1148C14.3179 35.125 14.3348 35.1305 14.3521 35.1305H15.7725C15.8414 35.1305 15.9074 35.1592 15.9561 35.2103C16.0048 35.2614 16.0322 35.3307 16.0322 35.403C16.0322 35.4753 16.0048 35.5446 15.9561 35.5957C15.9074 35.6469 15.8414 35.6756 15.7725 35.6756H15.2261L16.3916 38.4665C16.415 38.5223 16.4199 38.5847 16.4054 38.6438C16.391 38.7028 16.3581 38.755 16.312 38.7921C16.2774 38.819 16.2417 38.8441 16.2046 38.867C16.1168 38.922 16.0254 38.9704 15.9311 39.012C15.6179 39.1494 15.2817 39.2197 14.9422 39.2187C14.6028 39.2199 14.2667 39.1497 13.9536 39.0123C13.8592 38.9708 13.7678 38.9222 13.68 38.867C13.6433 38.8447 13.6078 38.8201 13.5737 38.7936L13.572 38.7921C13.5259 38.755 13.493 38.7028 13.4786 38.6438C13.4641 38.5847 13.469 38.5223 13.4924 38.4665L14.6586 35.6756H14.3518C14.2303 35.6756 14.1115 35.637 14.0111 35.5655L13.4235 35.1461C13.4092 35.1358 13.3923 35.1304 13.375 35.1305H12.6915V40.3998H14.2451C14.314 40.3998 14.3801 40.4285 14.4288 40.4796C14.4775 40.5307 14.5048 40.6001 14.5048 40.6724C14.5048 40.7446 14.4775 40.814 14.4288 40.8651C14.3801 40.9162 14.314 40.9449 14.2451 40.9449H10.6184C10.5495 40.9449 10.4835 40.9162 10.4348 40.8651C10.386 40.814 10.3587 40.7446 10.3587 40.6724C10.3587 40.6001 10.386 40.5307 10.4348 40.4796C10.4835 40.4285 10.5495 40.3998 10.6184 40.3998H12.1721V35.1305H11.4882C11.4709 35.1305 11.454 35.1359 11.4397 35.1461L10.8525 35.5655C10.752 35.637 10.6333 35.6756 10.5117 35.6756H10.2049L11.3712 38.4665C11.3937 38.5207 11.3989 38.5812 11.3858 38.6387C11.3728 38.6963 11.3422 38.7478 11.2988 38.7856C11.2711 38.8092 11.2434 38.8314 11.1915 38.8666C11.1039 38.9261 11.0122 38.9787 10.9172 39.024C10.6045 39.1731 10.2649 39.2499 9.92136 39.2493C9.57785 39.25 9.23821 39.1732 8.92551 39.024C8.8305 38.9787 8.73884 38.9261 8.65127 38.8666C8.61424 38.8419 8.57852 38.8151 8.54427 38.7863C8.50119 38.7481 8.47088 38.6965 8.4578 38.639C8.44471 38.5814 8.44953 38.521 8.47156 38.4665L9.63742 35.6756H9.09137C9.02249 35.6756 8.95644 35.6469 8.90773 35.5957C8.85903 35.5446 8.83167 35.4753 8.83167 35.403C8.83167 35.3307 8.85903 35.2614 8.90773 35.2103C8.95644 35.1592 9.02249 35.1305 9.09137 35.1305H10.5117C10.5291 35.1305 10.546 35.125 10.5606 35.1148L11.1475 34.6955C11.2479 34.6235 11.367 34.5854 11.4885 34.5854H12.1721V33.9494C12.1721 33.8771 12.1994 33.8078 12.2481 33.7567C12.2968 33.7056 12.3629 33.6769 12.4318 33.6769C12.5006 33.6769 12.5667 33.7056 12.6154 33.7567C12.6641 33.8078 12.6915 33.8771 12.6915 33.9494ZM9.03596 38.473C9.30849 38.6253 9.61262 38.7046 9.92136 38.7038C10.2301 38.7046 10.5342 38.6253 10.8068 38.473L9.92136 36.3544L9.03596 38.473ZM14.0602 38.4643C14.0886 38.4789 14.1205 38.4945 14.1555 38.5101C14.339 38.5912 14.6073 38.6736 14.9422 38.6736C15.2474 38.6745 15.5489 38.603 15.8241 38.4643L14.9422 36.354L14.0602 38.4643Z" fill="#6B6B6B"/>
<path d="M16.9099 30.9701V30.3686M16.9099 30.3686H2.14624V55.6314H3.57905M16.9099 30.3686L17.7639 30.9701" stroke="#6B6B6B" stroke-width="1.3" stroke-linejoin="round"/>
<path d="M15.7637 30.3686V29.7671M15.7637 29.7671H1V55.0299H2.14625M15.7637 29.7671L16.6176 30.3686" stroke="#6B6B6B" stroke-width="1.3" stroke-linejoin="round"/>
<path d="M21.5521 62.4319V85H3.57892V59.7372H18.3426M21.5521 62.4319H18.3426V59.7372M21.5521 62.4319L18.3426 59.7372" stroke="#6B6B6B" stroke-width="1.3" stroke-linejoin="round"/>
<path d="M6.14664 72.5371H18.9846" stroke="#6B6B6B" stroke-linecap="square"/>
<path d="M6.14664 74.5581H18.9846" stroke="#6B6B6B" stroke-linecap="square"/>
<path d="M6.14664 76.5791H13.2075" stroke="#6B6B6B" stroke-linecap="square"/>
<path d="M11.2817 78.6001H18.9845" stroke="#6B6B6B" stroke-linecap="square"/>
<path d="M6.14664 78.6001H9.99803" stroke="#6B6B6B" stroke-linecap="square"/>
<path d="M6.14664 80.6211H8.07234" stroke="#6B6B6B" stroke-linecap="square"/>
<path d="M9.35599 80.6211H18.9845" stroke="#6B6B6B" stroke-linecap="square"/>
<path d="M6.14664 82.6422H11.2818" stroke="#6B6B6B" stroke-linecap="square"/>
<path d="M14.4914 76.5791H18.9847" stroke="#6B6B6B" stroke-linecap="square"/>
<path d="M12.6915 62.7165V63.3525H13.3753C13.4969 63.3525 13.6156 63.391 13.7161 63.4626L14.3037 63.882C14.3179 63.8921 14.3348 63.8976 14.3521 63.8976H15.7725C15.8414 63.8976 15.9074 63.9263 15.9561 63.9774C16.0048 64.0285 16.0322 64.0979 16.0322 64.1701C16.0322 64.2424 16.0048 64.3117 15.9561 64.3629C15.9074 64.414 15.8414 64.4427 15.7725 64.4427H15.2261L16.3916 67.2336C16.415 67.2894 16.4199 67.3518 16.4054 67.4109C16.391 67.4699 16.3581 67.5222 16.312 67.5592C16.2774 67.5861 16.2417 67.6112 16.2046 67.6341C16.1168 67.6891 16.0254 67.7376 15.9311 67.7791C15.6179 67.9166 15.2817 67.9869 14.9422 67.9859C14.6028 67.987 14.2667 67.9168 13.9536 67.7795C13.8592 67.7379 13.7678 67.6893 13.68 67.6341C13.6433 67.6118 13.6078 67.5873 13.5737 67.5607L13.572 67.5592C13.5259 67.5222 13.493 67.4699 13.4786 67.4109C13.4641 67.3518 13.469 67.2894 13.4924 67.2336L14.6586 64.4427H14.3518C14.2303 64.4427 14.1115 64.4042 14.0111 64.3326L13.4235 63.9132C13.4092 63.903 13.3923 63.8975 13.375 63.8976H12.6915V69.1669H14.2451C14.314 69.1669 14.3801 69.1956 14.4288 69.2468C14.4775 69.2979 14.5048 69.3672 14.5048 69.4395C14.5048 69.5118 14.4775 69.5811 14.4288 69.6322C14.3801 69.6833 14.314 69.712 14.2451 69.712H10.6184C10.5495 69.712 10.4835 69.6833 10.4348 69.6322C10.386 69.5811 10.3587 69.5118 10.3587 69.4395C10.3587 69.3672 10.386 69.2979 10.4348 69.2468C10.4835 69.1956 10.5495 69.1669 10.6184 69.1669H12.1721V63.8976H11.4882C11.4709 63.8976 11.454 63.903 11.4397 63.9132L10.8525 64.3326C10.752 64.4042 10.6333 64.4427 10.5117 64.4427H10.2049L11.3712 67.2336C11.3937 67.2878 11.3989 67.3483 11.3858 67.4059C11.3728 67.4634 11.3422 67.515 11.2988 67.5527C11.2711 67.5763 11.2434 67.5985 11.1915 67.6337C11.1039 67.6932 11.0122 67.7458 10.9172 67.7911C10.6045 67.9402 10.2649 68.017 9.92136 68.0164C9.57785 68.0172 9.23821 67.9403 8.92551 67.7911C8.8305 67.7458 8.73884 67.6932 8.65127 67.6337C8.61424 67.609 8.57852 67.5822 8.54427 67.5534C8.50119 67.5153 8.47088 67.4636 8.4578 67.4061C8.44471 67.3485 8.44953 67.2881 8.47156 67.2336L9.63742 64.4427H9.09137C9.02249 64.4427 8.95644 64.414 8.90773 64.3629C8.85903 64.3117 8.83167 64.2424 8.83167 64.1701C8.83167 64.0979 8.85903 64.0285 8.90773 63.9774C8.95644 63.9263 9.02249 63.8976 9.09137 63.8976H10.5117C10.5291 63.8976 10.546 63.8921 10.5606 63.882L11.1475 63.4626C11.2479 63.3906 11.367 63.3525 11.4885 63.3525H12.1721V62.7165C12.1721 62.6442 12.1994 62.5749 12.2481 62.5238C12.2968 62.4727 12.3629 62.444 12.4318 62.444C12.5006 62.444 12.5667 62.4727 12.6154 62.5238C12.6641 62.5749 12.6915 62.6442 12.6915 62.7165ZM9.03596 67.2402C9.30849 67.3924 9.61262 67.4717 9.92136 67.4709C10.2301 67.4717 10.5342 67.3924 10.8068 67.2402L9.92136 65.1215L9.03596 67.2402ZM14.0602 67.2314C14.0886 67.246 14.1205 67.2616 14.1555 67.2772C14.339 67.3583 14.6073 67.4408 14.9422 67.4408C15.2474 67.4417 15.5489 67.3701 15.8241 67.2314L14.9422 65.1212L14.0602 67.2314Z" fill="#6B6B6B"/>
<path d="M16.9099 59.7372V59.1357M16.9099 59.1357H2.14624V84.3985H3.57905M16.9099 59.1357L17.7639 59.7372" stroke="#6B6B6B" stroke-width="1.3" stroke-linejoin="round"/>
<path d="M15.7637 59.1357V58.5342M15.7637 58.5342H1V83.797H2.14625M15.7637 58.5342L16.6176 59.1357" stroke="#6B6B6B" stroke-width="1.3" stroke-linejoin="round"/>
<line x1="25" y1="12.5" x2="41" y2="12.5" stroke="#6B6B6B"/>
<line x1="40.5" y1="12" x2="40.5" y2="76" stroke="#6B6B6B"/>
<path d="M58 45L53 42.1132V47.8868L58 45ZM28 45.5H53.5V44.5H28V45.5Z" fill="#6B6B6B"/>
<line x1="25" y1="75.5" x2="41" y2="75.5" stroke="#6B6B6B"/>
<path d="M113.28 19.04V78H64V12H104.48M113.28 19.04H104.48V12M113.28 19.04L104.48 12" stroke="#6B6B6B" stroke-width="1.3" stroke-linejoin="round"/>
<path d="M71.04 45.44H106.24" stroke="#6B6B6B" stroke-linecap="square"/>
<path d="M71.04 50.72H106.24" stroke="#6B6B6B" stroke-linecap="square"/>
<path d="M71.04 56H90.4" stroke="#6B6B6B" stroke-linecap="square"/>
<path d="M85.12 61.28L106.24 61.28" stroke="#6B6B6B" stroke-linecap="square"/>
<path d="M71.04 61.28H81.6" stroke="#6B6B6B" stroke-linecap="square"/>
<path d="M71.04 66.56H76.32" stroke="#6B6B6B" stroke-linecap="square"/>
<path d="M79.84 66.56H106.24" stroke="#6B6B6B" stroke-linecap="square"/>
<path d="M71.04 71.84H85.12" stroke="#6B6B6B" stroke-linecap="square"/>
<path d="M93.92 56H106.24" stroke="#6B6B6B" stroke-linecap="square"/>
<path d="M88.985 19.7835V21.4449H90.8601C91.1933 21.4449 91.519 21.5456 91.7943 21.7326L93.4055 22.8282C93.4444 22.8548 93.4909 22.869 93.5384 22.869H97.4328C97.6217 22.869 97.8028 22.9441 97.9363 23.0776C98.0699 23.2111 98.1449 23.3923 98.1449 23.5811C98.1449 23.7699 98.0699 23.9511 97.9363 24.0846C97.8028 24.2181 97.6217 24.2932 97.4328 24.2932H95.9347L99.1304 31.5846C99.1945 31.7303 99.2078 31.8934 99.1682 32.0477C99.1286 32.2019 99.0384 32.3384 98.912 32.4352C98.8171 32.5055 98.7193 32.571 98.6177 32.6308C98.3769 32.7745 98.1262 32.9011 97.8677 33.0096C97.0089 33.3688 96.087 33.5525 95.1562 33.5498C94.2257 33.5528 93.3041 33.3694 92.4456 33.0106C92.1869 32.902 91.9362 32.7751 91.6956 32.6308C91.5948 32.5725 91.4975 32.5085 91.4041 32.439L91.3994 32.4352C91.273 32.3384 91.1828 32.2019 91.1432 32.0477C91.1036 31.8934 91.1169 31.7303 91.181 31.5846L94.3786 24.2932H93.5374C93.2042 24.2932 92.8785 24.1925 92.6032 24.0055L90.9921 22.9099C90.9529 22.8831 90.9066 22.8688 90.8591 22.869H88.985V36.6354H93.245C93.4339 36.6354 93.615 36.7104 93.7485 36.844C93.882 36.9775 93.9571 37.1586 93.9571 37.3475C93.9571 37.5363 93.882 37.7174 93.7485 37.851C93.615 37.9845 93.4339 38.0595 93.245 38.0595H83.3009C83.1121 38.0595 82.931 37.9845 82.7974 37.851C82.6639 37.7174 82.5889 37.5363 82.5889 37.3475C82.5889 37.1586 82.6639 36.9775 82.7974 36.844C82.931 36.7104 83.1121 36.6354 83.3009 36.6354H87.5609V22.869H85.6858C85.6384 22.869 85.5921 22.8832 85.5529 22.9099L83.9427 24.0055C83.6674 24.1925 83.3418 24.2932 83.0085 24.2932H82.1673L85.3649 31.5846C85.4268 31.7262 85.4409 31.8842 85.4051 32.0346C85.3694 32.1849 85.2856 32.3196 85.1665 32.4182C85.0906 32.4799 85.0146 32.5378 84.8722 32.6299C84.6321 32.7854 84.3808 32.9228 84.1203 33.041C83.2628 33.4305 82.3316 33.6313 81.3898 33.6296C80.4479 33.6316 79.5167 33.4308 78.6593 33.041C78.3988 32.9228 78.1475 32.7854 77.9074 32.6299C77.8058 32.5653 77.7079 32.4953 77.614 32.4201C77.4959 32.3204 77.4128 32.1855 77.3769 32.0351C77.341 31.8848 77.3542 31.7269 77.4146 31.5846L80.6113 24.2932H79.1141C78.9252 24.2932 78.7441 24.2181 78.6106 24.0846C78.477 23.9511 78.402 23.7699 78.402 23.5811C78.402 23.3923 78.477 23.2111 78.6106 23.0776C78.7441 22.9441 78.9252 22.869 79.1141 22.869H83.0085C83.056 22.869 83.1025 22.8548 83.1424 22.8282L84.7516 21.7326C85.027 21.5446 85.3536 21.4449 85.6868 21.4449H87.5609V19.7835C87.5609 19.5946 87.6359 19.4135 87.7695 19.28C87.903 19.1464 88.0841 19.0714 88.273 19.0714C88.4618 19.0714 88.6429 19.1464 88.7765 19.28C88.91 19.4135 88.985 19.5946 88.985 19.7835ZM78.9622 31.6017C79.7094 31.9995 80.5433 32.2066 81.3898 32.2045C82.2363 32.2066 83.0702 31.9995 83.8174 31.6017L81.3898 26.0666L78.9622 31.6017ZM92.738 31.5789C92.8159 31.6169 92.9032 31.6577 92.9991 31.6985C93.5023 31.9102 94.2381 32.1257 95.1562 32.1257C95.9931 32.1281 96.8198 31.9411 97.5743 31.5789L95.1562 26.0657L92.738 31.5789Z" fill="#6B6B6B"/>
</svg>
